<?xml version="1.0" standalone="no"?>
<!DOCTYPE svg PUBLIC "-//W3C//DTD SVG 20010904//EN"
 "http://www.w3.org/TR/2001/REC-SVG-20010904/DTD/svg10.dtd">
<svg version="1.0" xmlns="http://www.w3.org/2000/svg"
 width="2876.000000pt" height="1499.000000pt" viewBox="0 0 2876.000000 1499.000000"
 preserveAspectRatio="xMidYMid meet">

<g transform="translate(0.000000,1499.000000) scale(0.100000,-0.100000)"
fill="#000000" stroke="none">
<path d="M1231 8668 c-469 -3137 -855 -5722 -858 -5745 l-6 -43 1092 0 c600 0
1091 -4 1091 -8 0 -5 -61 -488 -135 -1074 -74 -586 -135 -1069 -135 -1072 0
-3 5255 -5 11677 -4 l11677 3 852 5700 c469 3135 856 5719 859 5743 l6 42
-1090 0 c-1065 0 -1091 0 -1091 19 0 20 256 2054 265 2109 l6 32 -11678 0
-11679 0 -853 -5702z m23936 3515 c-3 -16 -328 -2115 -723 -4665 l-718 -4638
-10590 0 -10589 0 6 43 c4 23 328 2120 722 4659 393 2539 715 4620 715 4623 0
3 4766 5 10591 5 l10591 0 -5 -27z"/>
<path d="M11394 10401 c-2 -2 -4 -969 -4 -2148 l0 -2143 1750 -2 1750 -3 0
445 0 445 -1247 0 -1248 0 -3 1703 c-2 1351 -5 1702 -15 1702 -441 4 -980 4
-983 1z"/>
<path d="M21049 10403 l-497 -3 -203 -308 c-112 -169 -303 -458 -424 -642
-122 -184 -356 -537 -519 -785 -164 -247 -345 -523 -404 -612 -59 -90 -110
-163 -113 -163 -4 0 -163 237 -355 528 -191 290 -506 766 -699 1057 -192 292
-409 619 -480 727 l-130 198 -502 0 -503 0 0 -2145 0 -2145 500 0 500 0 0
1271 0 1272 234 -354 c129 -195 322 -487 429 -649 107 -162 248 -375 312 -472
l117 -178 584 0 584 0 97 150 c54 83 146 224 204 313 169 258 572 879 672
1034 51 78 95 142 99 143 3 0 6 -21 6 -47 0 -27 1 -596 1 -1265 l1 -1218 495
0 495 0 0 2150 c0 1183 -1 2149 -2 2148 -2 -2 -226 -4 -499 -5z"/>
<path d="M6912 10383 c-6 -10 -98 -238 -207 -508 -108 -269 -203 -503 -210
-520 -7 -16 -20 -50 -30 -75 -9 -25 -23 -58 -30 -75 -7 -16 -68 -167 -135
-335 -67 -168 -128 -318 -135 -335 -7 -16 -115 -284 -240 -595 -125 -311 -233
-578 -240 -595 -7 -16 -44 -109 -83 -205 -284 -709 -386 -959 -398 -984 -8
-16 -14 -34 -14 -40 0 -8 150 -10 529 -8 l528 2 15 38 c9 20 61 152 118 292
56 140 108 269 115 285 7 17 31 75 53 130 141 353 476 1185 487 1210 8 17 134
329 280 693 147 365 276 685 287 710 l20 47 84 -210 c181 -449 325 -807 384
-955 34 -85 68 -168 75 -185 7 -16 45 -111 85 -210 39 -99 78 -193 85 -210 7
-16 72 -178 145 -360 72 -181 135 -338 141 -347 27 -51 73 -48 -826 -48 -459
0 -835 -3 -835 -6 0 -6 155 -395 171 -429 5 -11 47 -114 93 -230 l84 -210
1371 -3 c754 -1 1371 0 1371 4 0 5 -104 266 -135 339 -7 17 -68 167 -135 335
-67 168 -128 319 -135 335 -7 17 -171 424 -365 905 -193 481 -360 894 -371
917 -10 24 -19 47 -19 51 0 5 -6 22 -14 38 -12 25 -102 246 -418 1034 -28 69
-58 143 -68 165 -9 22 -28 68 -40 103 l-23 62 -703 0 c-660 0 -704 -1 -712
-17z"/>
<path d="M10718 6693 l-328 -3 0 -293 0 -292 330 0 330 0 0 298 c0 163 -1 296
-2 295 -2 -2 -150 -4 -330 -5z"/>
<path d="M15230 6400 l0 -290 330 0 330 0 0 290 0 290 -330 0 -330 0 0 -290z"/>
<path d="M7940 4773 l0 -393 155 0 155 0 0 390 0 389 -155 3 -155 3 0 -392z"/>
<path d="M11313 5162 l-23 -3 0 -390 c0 -304 3 -389 13 -389 6 0 78 -2 160 -3
l147 -2 0 153 0 152 290 0 290 0 1 30 c1 17 1 39 1 50 0 66 29 60 -292 60
l-290 0 0 105 0 105 540 0 540 0 0 65 0 65 -677 2 c-373 2 -688 2 -700 0z"/>
<path d="M14360 5162 c-19 -1 -63 -9 -96 -18 -101 -26 -134 -76 -134 -209 0
-82 14 -132 44 -164 50 -52 69 -54 634 -58 l522 -4 0 -95 0 -94 -487 2 -488 3
-3 45 -3 46 -134 -16 c-74 -9 -137 -18 -140 -22 -9 -8 13 -96 32 -124 43 -67
112 -74 730 -74 282 0 531 2 555 5 106 14 147 28 180 62 l33 34 0 139 c0 138
0 139 -28 168 -17 18 -51 36 -90 47 -55 17 -116 19 -569 23 l-508 4 0 84 0 84
455 0 455 0 0 -45 c0 -42 1 -44 28 -41 262 34 245 28 239 82 -5 55 -41 97
-100 115 -31 9 -180 14 -567 18 -289 3 -541 5 -560 3z"/>
<path d="M16970 5159 c-583 -6 -592 -7 -639 -68 -25 -33 -26 -40 -26 -157 l0
-123 32 -33 c32 -33 92 -57 158 -63 17 -2 249 -3 518 -4 l487 -1 0 -95 0 -95
-490 0 -490 0 0 48 0 48 -135 -16 c-74 -9 -137 -19 -140 -22 -4 -4 -2 -31 5
-61 14 -68 46 -100 120 -118 80 -20 1187 -20 1277 0 103 23 133 71 133 216 0
145 -29 193 -130 218 -90 23 -162 26 -652 26 l-428 1 0 85 0 85 455 0 455 0 0
-46 c0 -44 1 -45 28 -40 35 6 94 14 160 21 29 3 63 10 76 15 24 9 24 10 10 56
-18 62 -36 80 -97 100 -82 27 -140 29 -687 23z"/>
<path d="M18454 5161 c-2 -2 -4 -179 -4 -392 l0 -388 156 -3 c86 -2 158 -1
160 1 2 2 4 179 4 392 l0 388 -156 3 c-86 2 -158 1 -160 -1z"/>
<path d="M8960 4771 l0 -390 141 -3 c77 -2 143 -1 145 1 7 7 3 432 -5 491 l-7
55 156 -76 c85 -43 339 -165 563 -273 l408 -196 109 0 110 0 2 390 3 390 -145
0 -145 0 5 -267 c3 -148 5 -269 4 -271 -1 -1 -35 15 -75 37 -41 22 -198 99
-349 172 -398 190 -484 231 -589 283 l-94 46 -118 0 -119 0 0 -389z"/>
<path d="M13090 4770 l0 -389 156 -3 c86 -2 158 -1 160 1 2 2 4 179 4 393 l0
388 -160 0 -160 0 0 -390z"/>
<path d="M26301 14000 c-136 -29 -213 -71 -312 -169 -127 -127 -175 -255 -166
-446 4 -92 9 -121 34 -180 71 -170 193 -287 363 -346 97 -34 266 -33 369 0
189 62 342 224 387 411 16 67 18 224 3 288 -27 114 -117 257 -206 323 -67 51
-166 98 -238 115 -44 10 -193 13 -234 4z m238 -77 c183 -47 338 -210 378 -398
14 -67 8 -195 -11 -255 -102 -309 -448 -460 -731 -318 -198 100 -316 320 -286
533 28 205 185 384 387 439 63 18 194 17 263 -1z"/>
<path d="M26090 13431 l0 -291 65 0 65 0 0 110 0 110 68 0 67 0 120 -110 120
-109 98 -1 c53 0 97 2 97 3 0 2 -59 50 -130 107 -72 57 -129 104 -128 105 2 2
34 5 71 8 47 3 77 11 95 24 26 19 27 24 30 134 1 63 0 124 -3 136 -3 13 -22
31 -43 42 -33 17 -64 19 -314 20 l-278 2 0 -290z m510 169 c14 -23 6 -120 -10
-130 -8 -6 -95 -10 -192 -10 l-178 0 0 81 0 81 185 -4 c149 -2 188 -6 195 -18z"/>
</g>
</svg>
